<svg width="352" height="136" viewBox="0 0 352 136" fill="none" xmlns="http://www.w3.org/2000/svg">
<path d="M0 5C0 2.23857 2.23858 0 5 0H347C349.761 0 352 2.23858 352 5V131C352 133.761 349.761 136 347 136H5.00001C2.23858 136 0 133.761 0 131V5Z" fill="white"/>
<path d="M34.688 33.2172V36.9452H38.752V38.1452H34.688V41.9852H39.232V43.1852H33.232V32.0172H39.232V33.2172H34.688ZM45.7071 34.2572C46.7738 34.2572 47.6378 34.5825 48.2991 35.2332C48.9605 35.8732 49.2911 36.8012 49.2911 38.0172V43.1852H47.8511V38.2252C47.8511 37.3505 47.6325 36.6838 47.1951 36.2252C46.7578 35.7558 46.1605 35.5212 45.4031 35.5212C44.6351 35.5212 44.0218 35.7612 43.5631 36.2412C43.1151 36.7212 42.8911 37.4198 42.8911 38.3372V43.1852H41.4351V34.4172H42.8911V35.6652C43.1791 35.2172 43.5685 34.8705 44.0591 34.6252C44.5605 34.3798 45.1098 34.2572 45.7071 34.2572ZM53.4455 35.6172V40.7852C53.4455 41.2118 53.5362 41.5158 53.7175 41.6972C53.8988 41.8678 54.2135 41.9532 54.6615 41.9532H55.7335V43.1852H54.4215C53.6108 43.1852 53.0028 42.9985 52.5975 42.6252C52.1922 42.2518 51.9895 41.6385 51.9895 40.7852V35.6172H50.8535V34.4172H51.9895V32.2092H53.4455V34.4172H55.7335V35.6172H53.4455ZM58.9536 35.8412C59.2096 35.3398 59.5723 34.9505 60.0416 34.6732C60.5216 34.3958 61.103 34.2572 61.7856 34.2572V35.7612H61.4016C59.7696 35.7612 58.9536 36.6465 58.9536 38.4172V43.1852H57.4976V34.4172H58.9536V35.8412ZM62.9224 38.7692C62.9224 37.8732 63.1037 37.0892 63.4664 36.4172C63.829 35.7345 64.325 35.2065 64.9544 34.8332C65.5944 34.4598 66.3037 34.2732 67.0824 34.2732C67.8504 34.2732 68.517 34.4385 69.0824 34.7692C69.6477 35.0998 70.069 35.5158 70.3464 36.0172V34.4172H71.8184V43.1852H70.3464V41.5532C70.0584 42.0652 69.6264 42.4918 69.0504 42.8332C68.485 43.1638 67.8237 43.3292 67.0664 43.3292C66.2877 43.3292 65.5837 43.1372 64.9544 42.7532C64.325 42.3692 63.829 41.8305 63.4664 41.1372C63.1037 40.4438 62.9224 39.6545 62.9224 38.7692ZM70.3464 38.7852C70.3464 38.1238 70.213 37.5478 69.9464 37.0572C69.6797 36.5665 69.317 36.1932 68.8584 35.9372C68.4104 35.6705 67.9144 35.5372 67.3704 35.5372C66.8264 35.5372 66.3304 35.6652 65.8824 35.9212C65.4344 36.1772 65.077 36.5505 64.8104 37.0412C64.5437 37.5318 64.4104 38.1078 64.4104 38.7692C64.4104 39.4412 64.5437 40.0278 64.8104 40.5292C65.077 41.0198 65.4344 41.3985 65.8824 41.6652C66.3304 41.9212 66.8264 42.0492 67.3704 42.0492C67.9144 42.0492 68.4104 41.9212 68.8584 41.6652C69.317 41.3985 69.6797 41.0198 69.9464 40.5292C70.213 40.0278 70.3464 39.4465 70.3464 38.7852ZM73.7349 38.7692C73.7349 37.8732 73.9162 37.0892 74.2789 36.4172C74.6415 35.7345 75.1375 35.2065 75.7669 34.8332C76.4069 34.4598 77.1215 34.2732 77.9109 34.2732C78.5935 34.2732 79.2282 34.4332 79.8149 34.7532C80.4015 35.0625 80.8495 35.4732 81.1589 35.9852V31.3452H82.6309V43.1852H81.1589V41.5372C80.8709 42.0598 80.4442 42.4918 79.8789 42.8332C79.3135 43.1638 78.6522 43.3292 77.8949 43.3292C77.1162 43.3292 76.4069 43.1372 75.7669 42.7532C75.1375 42.3692 74.6415 41.8305 74.2789 41.1372C73.9162 40.4438 73.7349 39.6545 73.7349 38.7692ZM81.1589 38.7852C81.1589 38.1238 81.0255 37.5478 80.7589 37.0572C80.4922 36.5665 80.1295 36.1932 79.6709 35.9372C79.2229 35.6705 78.7269 35.5372 78.1829 35.5372C77.6389 35.5372 77.1429 35.6652 76.6949 35.9212C76.2469 36.1772 75.8895 36.5505 75.6229 37.0412C75.3562 37.5318 75.2229 38.1078 75.2229 38.7692C75.2229 39.4412 75.3562 40.0278 75.6229 40.5292C75.8895 41.0198 76.2469 41.3985 76.6949 41.6652C77.1429 41.9212 77.6389 42.0492 78.1829 42.0492C78.7269 42.0492 79.2229 41.9212 79.6709 41.6652C80.1295 41.3985 80.4922 41.0198 80.7589 40.5292C81.0255 40.0278 81.1589 39.4465 81.1589 38.7852ZM84.5474 38.7692C84.5474 37.8732 84.7287 37.0892 85.0914 36.4172C85.454 35.7345 85.95 35.2065 86.5794 34.8332C87.2194 34.4598 87.9287 34.2732 88.7074 34.2732C89.4754 34.2732 90.142 34.4385 90.7074 34.7692C91.2727 35.0998 91.694 35.5158 91.9714 36.0172V34.4172H93.4434V43.1852H91.9714V41.5532C91.6834 42.0652 91.2514 42.4918 90.6754 42.8332C90.11 43.1638 89.4487 43.3292 88.6914 43.3292C87.9127 43.3292 87.2087 43.1372 86.5794 42.7532C85.95 42.3692 85.454 41.8305 85.0914 41.1372C84.7287 40.4438 84.5474 39.6545 84.5474 38.7692ZM91.9714 38.7852C91.9714 38.1238 91.838 37.5478 91.5714 37.0572C91.3047 36.5665 90.942 36.1932 90.4834 35.9372C90.0354 35.6705 89.5394 35.5372 88.9954 35.5372C88.4514 35.5372 87.9554 35.6652 87.5074 35.9212C87.0594 36.1772 86.702 36.5505 86.4354 37.0412C86.1687 37.5318 86.0354 38.1078 86.0354 38.7692C86.0354 39.4412 86.1687 40.0278 86.4354 40.5292C86.702 41.0198 87.0594 41.3985 87.5074 41.6652C87.9554 41.9212 88.4514 42.0492 88.9954 42.0492C89.5394 42.0492 90.0354 41.9212 90.4834 41.6652C90.942 41.3985 91.3047 41.0198 91.5714 40.5292C91.838 40.0278 91.9714 39.4465 91.9714 38.7852ZM99.0079 43.3292C98.3359 43.3292 97.7332 43.2172 97.1999 42.9932C96.6665 42.7585 96.2452 42.4385 95.9359 42.0332C95.6265 41.6172 95.4559 41.1425 95.4239 40.6092H96.9279C96.9705 41.0465 97.1732 41.4038 97.5359 41.6812C97.9092 41.9585 98.3945 42.0972 98.9919 42.0972C99.5465 42.0972 99.9839 41.9745 100.304 41.7292C100.624 41.4838 100.784 41.1745 100.784 40.8012C100.784 40.4172 100.613 40.1345 100.272 39.9532C99.9305 39.7612 99.4025 39.5745 98.6879 39.3932C98.0372 39.2225 97.5039 39.0518 97.0879 38.8812C96.6825 38.6998 96.3305 38.4385 96.0319 38.0972C95.7439 37.7452 95.5999 37.2865 95.5999 36.7212C95.5999 36.2732 95.7332 35.8625 95.9999 35.4892C96.2665 35.1158 96.6452 34.8225 97.1359 34.6092C97.6265 34.3852 98.1865 34.2732 98.8159 34.2732C99.7865 34.2732 100.571 34.5185 101.168 35.0092C101.765 35.4998 102.085 36.1718 102.128 37.0252H100.672C100.64 36.5665 100.453 36.1985 100.112 35.9212C99.7812 35.6438 99.3332 35.5052 98.7679 35.5052C98.2452 35.5052 97.8292 35.6172 97.5199 35.8412C97.2105 36.0652 97.0559 36.3585 97.0559 36.7212C97.0559 37.0092 97.1465 37.2492 97.3279 37.4412C97.5199 37.6225 97.7545 37.7718 98.0319 37.8892C98.3199 37.9958 98.7145 38.1185 99.2159 38.2572C99.8452 38.4278 100.357 38.5985 100.752 38.7692C101.147 38.9292 101.483 39.1745 101.76 39.5052C102.048 39.8358 102.197 40.2678 102.208 40.8012C102.208 41.2812 102.075 41.7132 101.808 42.0972C101.541 42.4812 101.163 42.7852 100.672 43.0092C100.192 43.2225 99.6372 43.3292 99.0079 43.3292Z" fill="#363F5F"/>
<path d="M48.2 85.7547C48.2 88.5627 46.58 90.5787 42.872 90.5787H38.048V81.0747H42.872C46.616 81.0747 48.2 82.9107 48.2 85.7547ZM34.772 78.3747V103.467H38.048V93.2067H42.008L47.984 103.467H51.908L45.608 92.9547C49.82 92.0187 51.584 88.9587 51.584 85.7547C51.584 81.6507 48.776 78.3747 42.872 78.3747H34.772ZM63.5143 106.599H65.4583V103.683C70.3543 103.359 72.8743 99.9387 72.8743 96.5907C72.8743 91.5867 69.0223 90.5427 65.4583 89.6427V80.8587C67.6543 81.3267 68.8423 82.9467 69.0583 84.4947H72.5503C72.1903 80.8587 69.5623 78.4467 65.4583 78.0867V75.0987H63.5143V78.0867C59.0143 78.3747 56.0623 81.1467 56.0623 85.0347C56.0623 90.0027 59.9143 91.0467 63.5143 91.9827V100.983C60.9583 100.587 59.7703 98.8227 59.5903 96.9507H56.0983C56.1703 100.767 59.1943 103.287 63.5143 103.683V106.599ZM69.5983 96.7707C69.5983 98.9307 68.1223 100.731 65.4583 101.019V92.5227C67.7623 93.2067 69.5983 94.2147 69.5983 96.7707ZM59.4103 84.8547C59.4103 82.2987 61.1023 81.0027 63.5143 80.7867V89.1027C61.2103 88.3827 59.4103 87.4107 59.4103 84.8547ZM90.8625 103.467H95.0025V77.2227H87.5145V80.9667H90.8625V103.467ZM99.9205 77.3307V80.8227H113.24L103.124 103.467H107.264L117.272 80.3907V77.3307H99.9205ZM125.573 101.091C125.573 99.6147 124.421 98.4627 122.981 98.4627C121.505 98.4627 120.353 99.6147 120.353 101.091C120.353 102.567 121.505 103.719 122.981 103.719C124.421 103.719 125.573 102.567 125.573 101.091ZM141.997 103.467H146.029V97.9947H149.377V94.4307H146.029V77.5467H141.061L128.965 94.8987V97.9947H141.997V103.467ZM133.681 94.4307L142.177 81.7227V94.4307H133.681ZM152.777 90.0027C152.777 97.6347 154.793 103.395 162.137 103.395C169.481 103.395 171.497 97.6347 171.497 90.0027C171.497 82.5147 169.481 76.7547 162.137 76.7547C154.793 76.7547 152.777 82.5147 152.777 90.0027ZM167.465 90.0027C167.465 95.1507 166.925 99.6507 162.137 99.6507C157.349 99.6507 156.809 95.1507 156.809 90.0027C156.809 85.1067 157.349 80.4987 162.137 80.4987C166.925 80.4987 167.465 85.1067 167.465 90.0027ZM175.84 90.0027C175.84 97.6347 177.856 103.395 185.2 103.395C192.544 103.395 194.56 97.6347 194.56 90.0027C194.56 82.5147 192.544 76.7547 185.2 76.7547C177.856 76.7547 175.84 82.5147 175.84 90.0027ZM190.528 90.0027C190.528 95.1507 189.988 99.6507 185.2 99.6507C180.412 99.6507 179.872 95.1507 179.872 90.0027C179.872 85.1067 180.412 80.4987 185.2 80.4987C189.988 80.4987 190.528 85.1067 190.528 90.0027ZM196.67 108.615H198.866L202.898 98.9307H199.298L196.67 108.615ZM206.111 90.1827C206.111 97.7427 207.983 103.467 215.183 103.467C222.347 103.467 224.219 97.7427 224.219 90.1827C224.219 82.7307 222.347 77.0427 215.183 77.0427C207.983 77.0427 206.111 82.7307 206.111 90.1827ZM220.979 90.1827C220.979 95.7987 220.295 100.479 215.183 100.479C210.035 100.479 209.351 95.7987 209.351 90.1827C209.351 84.7827 210.035 80.0307 215.183 80.0307C220.295 80.0307 220.979 84.7827 220.979 90.1827ZM228.716 90.1827C228.716 97.7427 230.588 103.467 237.788 103.467C244.952 103.467 246.824 97.7427 246.824 90.1827C246.824 82.7307 244.952 77.0427 237.788 77.0427C230.588 77.0427 228.716 82.7307 228.716 90.1827ZM243.584 90.1827C243.584 95.7987 242.9 100.479 237.788 100.479C232.64 100.479 231.956 95.7987 231.956 90.1827C231.956 84.7827 232.64 80.0307 237.788 80.0307C242.9 80.0307 243.584 84.7827 243.584 90.1827Z" fill="#363F5F"/>
</svg>
